<mxfile host="app.diagrams.net" modified="2024-03-16T00:04:04.288Z" agent="Mozilla/5.0 (Windows NT 10.0; Win64; x64; rv:123.0) Gecko/20100101 Firefox/123.0" etag="gr_E75jynllX2o3XfONc" version="24.0.2" type="github">
  <diagram name="Page-1" id="2c0d36ab-eaac-3732-788b-9136903baeff">
    <mxGraphModel dx="1912" dy="957" grid="1" gridSize="10" guides="1" tooltips="1" connect="1" arrows="1" fold="1" page="1" pageScale="1.5" pageWidth="1169" pageHeight="827" background="none" math="0" shadow="0">
      <root>
        <mxCell id="0" />
        <mxCell id="1" parent="0" />
        <mxCell id="123" value="" style="fillColor=#AE4132;strokeColor=none;opacity=30;whiteSpace=wrap;html=1;" parent="1" vertex="1">
          <mxGeometry x="815" y="175.00000000000003" width="210" height="99.99999999999994" as="geometry" />
        </mxCell>
        <mxCell id="122" value="" style="fillColor=#10739E;strokeColor=none;opacity=30;whiteSpace=wrap;html=1;" parent="1" vertex="1">
          <mxGeometry x="353" y="325" width="1070" height="100" as="geometry" />
        </mxCell>
        <mxCell id="2" value="CupCakeDias" style="rounded=1;fillColor=#23445D;gradientColor=none;strokeColor=none;fontColor=#FFFFFF;fontStyle=1;fontFamily=Tahoma;fontSize=14;whiteSpace=wrap;html=1;" parent="1" vertex="1">
          <mxGeometry x="825" y="185" width="190" height="80" as="geometry" />
        </mxCell>
        <mxCell id="t7j39G-WJoQUOJ4sSuQn-129" style="edgeStyle=orthogonalEdgeStyle;rounded=0;orthogonalLoop=1;jettySize=auto;html=1;entryX=0.5;entryY=0;entryDx=0;entryDy=0;" edge="1" parent="1" source="4" target="48">
          <mxGeometry relative="1" as="geometry" />
        </mxCell>
        <mxCell id="4" value="Usuario" style="rounded=1;fillColor=#23445D;gradientColor=none;strokeColor=none;fontColor=#FFFFFF;fontStyle=1;fontFamily=Tahoma;fontSize=14;whiteSpace=wrap;html=1;" parent="1" vertex="1">
          <mxGeometry x="1169.9999999999998" y="335" width="190" height="80" as="geometry" />
        </mxCell>
        <mxCell id="9" value="" style="edgeStyle=elbowEdgeStyle;elbow=vertical;strokeWidth=2;rounded=0;html=1;" parent="1" source="2" target="4" edge="1">
          <mxGeometry x="337" y="215.5" width="100" height="100" as="geometry">
            <mxPoint x="600" y="315" as="sourcePoint" />
            <mxPoint x="700" y="215" as="targetPoint" />
          </mxGeometry>
        </mxCell>
        <mxCell id="12" value="Cliente" style="rounded=1;fillColor=#23445D;gradientColor=none;strokeColor=none;fontColor=#FFFFFF;fontStyle=1;fontFamily=Tahoma;fontSize=14;whiteSpace=wrap;html=1;" parent="1" vertex="1">
          <mxGeometry x="824.9999999999999" y="335" width="190" height="80" as="geometry" />
        </mxCell>
        <mxCell id="13" value="Pedidos     " style="rounded=1;fillColor=#23445D;gradientColor=none;strokeColor=none;fontColor=#FFFFFF;fontStyle=1;fontFamily=Tahoma;fontSize=14;whiteSpace=wrap;html=1;" parent="1" vertex="1">
          <mxGeometry x="460" y="335" width="190" height="80" as="geometry" />
        </mxCell>
        <mxCell id="14" value="Realizar pagamento seguro" style="rounded=1;fillColor=#23445D;gradientColor=none;strokeColor=none;fontColor=#FFFFFF;fontStyle=1;fontFamily=Tahoma;fontSize=14;whiteSpace=wrap;html=1;" parent="1" vertex="1">
          <mxGeometry x="490" y="455" width="130" height="60" as="geometry" />
        </mxCell>
        <mxCell id="t7j39G-WJoQUOJ4sSuQn-125" style="edgeStyle=orthogonalEdgeStyle;rounded=0;orthogonalLoop=1;jettySize=auto;html=1;entryX=0.5;entryY=0;entryDx=0;entryDy=0;" edge="1" parent="1" source="15" target="16">
          <mxGeometry relative="1" as="geometry" />
        </mxCell>
        <mxCell id="15" value="Adicionar itens ao carrinho de compras" style="rounded=1;fillColor=#23445D;gradientColor=none;strokeColor=none;fontColor=#FFFFFF;fontStyle=1;fontFamily=Tahoma;fontSize=14;whiteSpace=wrap;html=1;" parent="1" vertex="1">
          <mxGeometry x="490" y="545" width="130" height="55" as="geometry" />
        </mxCell>
        <mxCell id="t7j39G-WJoQUOJ4sSuQn-126" style="edgeStyle=orthogonalEdgeStyle;rounded=0;orthogonalLoop=1;jettySize=auto;html=1;entryX=0.5;entryY=0;entryDx=0;entryDy=0;" edge="1" parent="1" source="16" target="17">
          <mxGeometry relative="1" as="geometry" />
        </mxCell>
        <mxCell id="16" value="Programming" style="rounded=1;fillColor=#23445D;gradientColor=none;strokeColor=none;fontColor=#FFFFFF;fontStyle=1;fontFamily=Tahoma;fontSize=14;whiteSpace=wrap;html=1;" parent="1" vertex="1">
          <mxGeometry x="490" y="630" width="130" height="60" as="geometry" />
        </mxCell>
        <mxCell id="t7j39G-WJoQUOJ4sSuQn-127" style="edgeStyle=orthogonalEdgeStyle;rounded=0;orthogonalLoop=1;jettySize=auto;html=1;" edge="1" parent="1" source="17" target="18">
          <mxGeometry relative="1" as="geometry" />
        </mxCell>
        <mxCell id="17" value="HTTP" style="rounded=1;fillColor=#23445D;gradientColor=none;strokeColor=none;fontColor=#FFFFFF;fontStyle=1;fontFamily=Tahoma;fontSize=14;whiteSpace=wrap;html=1;" parent="1" vertex="1">
          <mxGeometry x="490" y="720" width="130" height="60" as="geometry" />
        </mxCell>
        <mxCell id="18" value="HTS" style="rounded=1;fillColor=#23445D;gradientColor=none;strokeColor=none;fontColor=#FFFFFF;fontStyle=1;fontFamily=Tahoma;fontSize=14;whiteSpace=wrap;html=1;" parent="1" vertex="1">
          <mxGeometry x="490" y="800" width="130" height="60" as="geometry" />
        </mxCell>
        <mxCell id="t7j39G-WJoQUOJ4sSuQn-132" style="edgeStyle=orthogonalEdgeStyle;rounded=0;orthogonalLoop=1;jettySize=auto;html=1;" edge="1" parent="1" source="29">
          <mxGeometry relative="1" as="geometry">
            <mxPoint x="920" y="540" as="targetPoint" />
          </mxGeometry>
        </mxCell>
        <mxCell id="t7j39G-WJoQUOJ4sSuQn-134" style="edgeStyle=orthogonalEdgeStyle;rounded=0;orthogonalLoop=1;jettySize=auto;html=1;entryX=0.5;entryY=0;entryDx=0;entryDy=0;" edge="1" parent="1" source="29" target="30">
          <mxGeometry relative="1" as="geometry" />
        </mxCell>
        <mxCell id="29" value="Manter histórico de pedidos" style="rounded=1;fillColor=#23445D;gradientColor=none;strokeColor=none;fontColor=#FFFFFF;fontStyle=1;fontFamily=Tahoma;fontSize=14;whiteSpace=wrap;html=1;" parent="1" vertex="1">
          <mxGeometry x="855" y="455" width="130" height="60" as="geometry" />
        </mxCell>
        <mxCell id="t7j39G-WJoQUOJ4sSuQn-133" style="edgeStyle=orthogonalEdgeStyle;rounded=0;orthogonalLoop=1;jettySize=auto;html=1;entryX=0.5;entryY=0;entryDx=0;entryDy=0;" edge="1" parent="1" source="30" target="31">
          <mxGeometry relative="1" as="geometry" />
        </mxCell>
        <mxCell id="30" value="Realizar pedido de cupcakes personalizados" style="rounded=1;fillColor=#23445D;gradientColor=none;strokeColor=none;fontColor=#FFFFFF;fontStyle=1;fontFamily=Tahoma;fontSize=14;whiteSpace=wrap;html=1;" parent="1" vertex="1">
          <mxGeometry x="855" y="545" width="130" height="60" as="geometry" />
        </mxCell>
        <mxCell id="t7j39G-WJoQUOJ4sSuQn-135" style="edgeStyle=orthogonalEdgeStyle;rounded=0;orthogonalLoop=1;jettySize=auto;html=1;entryX=0.5;entryY=0;entryDx=0;entryDy=0;" edge="1" parent="1" source="31" target="32">
          <mxGeometry relative="1" as="geometry" />
        </mxCell>
        <mxCell id="31" value="Client / Server" style="rounded=1;fillColor=#23445D;gradientColor=none;strokeColor=none;fontColor=#FFFFFF;fontStyle=1;fontFamily=Tahoma;fontSize=14;whiteSpace=wrap;html=1;" parent="1" vertex="1">
          <mxGeometry x="855" y="635" width="130" height="60" as="geometry" />
        </mxCell>
        <mxCell id="32" value="Data Collection" style="rounded=1;fillColor=#23445D;gradientColor=none;strokeColor=none;fontColor=#FFFFFF;fontStyle=1;fontFamily=Tahoma;fontSize=14;whiteSpace=wrap;html=1;" parent="1" vertex="1">
          <mxGeometry x="855" y="725" width="130" height="60" as="geometry" />
        </mxCell>
        <mxCell id="t7j39G-WJoQUOJ4sSuQn-131" style="edgeStyle=orthogonalEdgeStyle;rounded=0;orthogonalLoop=1;jettySize=auto;html=1;" edge="1" parent="1" source="42" target="43">
          <mxGeometry relative="1" as="geometry" />
        </mxCell>
        <mxCell id="42" value="Adicionar novo sabor de cupcake" style="rounded=1;fillColor=#23445D;gradientColor=none;strokeColor=none;fontColor=#FFFFFF;fontStyle=1;fontFamily=Tahoma;fontSize=14;whiteSpace=wrap;html=1;" parent="1" vertex="1">
          <mxGeometry x="1200" y="530" width="130" height="60" as="geometry" />
        </mxCell>
        <mxCell id="43" value="Knowhow" style="rounded=1;fillColor=#23445D;gradientColor=none;strokeColor=none;fontColor=#FFFFFF;fontStyle=1;fontFamily=Tahoma;fontSize=14;whiteSpace=wrap;html=1;" parent="1" vertex="1">
          <mxGeometry x="1200" y="610" width="130" height="60" as="geometry" />
        </mxCell>
        <mxCell id="t7j39G-WJoQUOJ4sSuQn-130" style="edgeStyle=orthogonalEdgeStyle;rounded=0;orthogonalLoop=1;jettySize=auto;html=1;" edge="1" parent="1" source="48" target="42">
          <mxGeometry relative="1" as="geometry" />
        </mxCell>
        <mxCell id="48" value="Gerenciar estoque de ingredientes" style="rounded=1;fillColor=#23445D;gradientColor=none;strokeColor=none;fontColor=#FFFFFF;fontStyle=1;fontFamily=Tahoma;fontSize=14;whiteSpace=wrap;html=1;" parent="1" vertex="1">
          <mxGeometry x="1200" y="450.00000000000006" width="130" height="60" as="geometry" />
        </mxCell>
        <mxCell id="59" value="" style="edgeStyle=elbowEdgeStyle;elbow=vertical;strokeWidth=2;rounded=0;html=1;" parent="1" source="2" target="12" edge="1">
          <mxGeometry x="347" y="225.5" width="100" height="100" as="geometry">
            <mxPoint x="1125" y="275" as="sourcePoint" />
            <mxPoint x="1729.9999999999998" y="345" as="targetPoint" />
          </mxGeometry>
        </mxCell>
        <mxCell id="61" value="" style="edgeStyle=elbowEdgeStyle;elbow=vertical;strokeWidth=2;rounded=0;html=1;" parent="1" source="2" target="13" edge="1">
          <mxGeometry x="-23" y="135.5" width="100" height="100" as="geometry">
            <mxPoint x="240" y="235" as="sourcePoint" />
            <mxPoint x="340" y="135" as="targetPoint" />
          </mxGeometry>
        </mxCell>
        <mxCell id="62" value="" style="edgeStyle=elbowEdgeStyle;elbow=vertical;strokeWidth=2;rounded=0;html=1;" parent="1" source="13" target="14" edge="1">
          <mxGeometry x="-23" y="135.5" width="100" height="100" as="geometry">
            <mxPoint x="240" y="235" as="sourcePoint" />
            <mxPoint x="340" y="135" as="targetPoint" />
          </mxGeometry>
        </mxCell>
        <mxCell id="101" value="" style="edgeStyle=elbowEdgeStyle;elbow=vertical;strokeWidth=2;rounded=0;html=1;" parent="1" source="12" target="29" edge="1">
          <mxGeometry x="-23" y="135.5" width="100" height="100" as="geometry">
            <mxPoint x="240" y="235" as="sourcePoint" />
            <mxPoint x="340" y="135" as="targetPoint" />
          </mxGeometry>
        </mxCell>
        <mxCell id="107" value="" style="edgeStyle=elbowEdgeStyle;elbow=vertical;rounded=0;strokeWidth=2;html=1;" parent="1" source="14" target="15" edge="1">
          <mxGeometry x="-23" y="135.5" width="100" height="100" as="geometry">
            <mxPoint x="410" y="235" as="sourcePoint" />
            <mxPoint x="510" y="135" as="targetPoint" />
          </mxGeometry>
        </mxCell>
      </root>
    </mxGraphModel>
  </diagram>
</mxfile>
